<svg xmlns="http://www.w3.org/2000/svg" width="84" height="32" viewBox="0 0 84 32" fill="none">
  <path d="M30.2967 12.2236L26.1508 24.7586C26.125 24.8367 26.0715 24.9032 25.9997 24.9462C25.928 24.9892 25.8429 25.0058 25.7597 24.9931C25.6764 24.9804 25.6006 24.9392 25.5459 24.8768C25.4912 24.8145 25.4611 24.7352 25.4612 24.6532V12.2236H18.8794V31.1169H30.9634L37.5249 12.224L30.2967 12.2236Z" fill="white"/>
  <path d="M38.3694 12.2235H45.2922V31.1163H38.3694V12.2235ZM0.5 17.8619H5.47719V31.1171H12.1732V17.8619H17.15V12.2235H0.5V17.8619ZM30.2963 12.2243L26.1504 24.7592C26.1246 24.8373 26.0711 24.9038 25.9994 24.9468C25.9276 24.9898 25.8425 25.0065 25.7593 24.9938C25.6761 24.981 25.6003 24.9398 25.5455 24.8775C25.4908 24.8151 25.4608 24.7358 25.4608 24.6538V12.2235H18.879V31.1167H30.963L37.5245 12.2235L30.2963 12.2243ZM58.9398 12.2243V20.1181C58.94 20.1958 58.9131 20.2712 58.8636 20.3322C58.8141 20.3931 58.7448 20.4359 58.6671 20.4536C58.5894 20.4714 58.5078 20.4629 58.4356 20.4297C58.3635 20.3965 58.305 20.3405 58.2697 20.2708L54.1762 12.2243H47.6346V31.1175H53.996V23.2669C53.996 23.1894 54.023 23.1141 54.0725 23.0534C54.122 22.9926 54.1911 22.9499 54.2687 22.9322C54.3462 22.9145 54.4277 22.9229 54.4997 22.9559C54.5718 22.9889 54.6303 23.0447 54.6657 23.1142L58.7401 31.1167H65.2826V12.2235L58.9398 12.2243ZM73.3819 23.5758V19.4485C73.3819 18.4043 73.8088 17.6367 74.838 17.3736C75.9414 17.0936 76.9596 17.7767 77.3057 18.8943L83.3942 15.7211C80.9947 11.4629 76.5057 11.521 74.709 11.6741C72.7291 11.7918 70.8399 12.5234 69.3181 13.7619C67.6542 15.1471 66.8669 17.4069 66.8669 19.7907V23.5115C66.8669 27.0578 68.3053 29.423 70.7861 30.8058C75.0656 33.1892 81.0713 31.5639 83.5 29.7648V20.6966H77.2135V26.3569C76.3221 26.6938 73.3836 27.08 73.3836 23.575" fill="white"/>
  <path d="M54.4565 0.329102H59.383V1.06454H54.4565V0.329102Z" fill="white"/>
  <path d="M58.4014 1.74317L58.5842 1.03532V1.02832H57.7098L57.5253 1.74317H56.2312V1.02832H55.3745V1.74317H54.396V2.45761H59.4464V1.74317H58.4014Z" fill="white"/>
  <path d="M55.2493 5.41813H59.383V3.74219H54.4565V4.45415H58.5914V4.70616H54.4574V6.3891H59.4494V5.67878H55.2493V5.41813Z" fill="white"/>
  <path d="M54.1499 2.74805H59.6898V3.4839H54.1499V2.74805Z" fill="white"/>
  <path d="M67.9639 0.329102H72.9076V1.10572H67.9639V0.329102Z" fill="white"/>
  <path d="M70.8407 3.2144V2.79439H72.9729V2.03219H71.9402L72.1357 0.991211H71.2689L71.0666 2.03219H69.7404V0.991211H68.8837V2.03219H67.9052V2.79439H69.9498V3.2144H67.5942V3.98361H73.2331V3.2144H70.8407Z" fill="white"/>
  <path d="M67.9639 6.3901H72.9076V4.29785H67.9639V6.3901ZM68.7914 5.02629H72.0806V5.66125H68.7914V5.02629Z" fill="white"/>
  <path d="M32.9045 4.45215H32.0317V6.38957H37.0237V5.63725H32.9024L32.9045 4.45215Z" fill="white"/>
  <path d="M36.0829 3.06717H36.9557V0.330078H32.0322V1.12316H36.0829V1.58971H32.0322V2.3688H36.0829V3.06717Z" fill="white"/>
  <path d="M34.6452 3.40084V2.62793H33.7724V3.40084H31.7266V4.15316H37.2321V3.40084H34.6452Z" fill="white"/>
  <path d="M41.0357 3.90638V3.11123L39.3659 3.22653V2.53968H40.8102V1.7536H39.3659V1.12316H40.938V0.330078H38.4932V4.08921L41.0315 3.9072L41.0357 3.90638Z" fill="white"/>
  <path d="M41.7049 4.68046H42.5705V0.232422H41.7045V1.756H41.0771V2.54003H41.7045L41.7049 4.68046Z" fill="white"/>
  <path d="M42.9253 0.204102H43.798V4.84732H42.9253V0.204102Z" fill="white"/>
  <path d="M39.5832 5.63775V4.38965H38.7104V6.39048H43.8234V5.63775H39.5832Z" fill="white"/>
  <path d="M47.8184 1.85301L49.7644 4.57939L50.4591 4.03832L48.64 1.56764H50.3322V0.792674H48.2512V0H47.3285V0.792674H45.2979V1.56888H46.9901L45.1841 4.03543L45.8698 4.57733L47.8184 1.85301Z" fill="white"/>
  <path d="M45.0322 5.61426H50.6072V6.39046H45.0322V5.61426Z" fill="white"/>
  <path d="M65.0363 2.56262H65.4978V4.41562H66.3541V0.203125H65.4978V1.78641H65.0355V0.231126H64.1919V4.15126H65.0355L65.0363 2.56262Z" fill="white"/>
  <path d="M63.7602 3.9124V3.16708L61.9728 3.27909V2.47776H63.6908V0.329102H61.1157V1.0703H62.8342V1.74192H61.1157V4.1257L63.7602 3.9124Z" fill="white"/>
  <path d="M63.8702 4.22949H63.8669L61.1509 5.88855L61.6378 6.55604L63.8669 5.17782L66.0874 6.55769L66.5795 5.8869L63.8702 4.22949Z" fill="white"/>
  <path d="M26.7528 6.39464L25.7717 3.63325H25.6994V6.39464H24.7188V0.339844H25.7061L25.6994 3.02423H25.7717L26.713 0.339844H27.7795L26.6606 3.27953L27.898 6.39341L26.7528 6.39464Z" fill="white"/>
  <path d="M28.2891 2.91504H30.4191V3.67107H28.2891V2.91504Z" fill="white"/>
  <path d="M17.689 5.31152H18.6764V6.3945H17.689V5.31152Z" fill="white"/>
  <path d="M12.38 2.03761V0.339844H13.3082V6.39299H12.347L11.374 2.72157H11.3147L11.3609 4.26574V6.39299H10.4395V0.339844H11.5055L12.3745 3.67772H12.4401L12.38 2.03761Z" fill="white"/>
  <path d="M20.6533 0.320312V6.39446H19.6803V1.74919H19.0288V1.17269C19.2767 1.18538 19.5199 1.10348 19.7067 0.944384C19.8936 0.785292 20.0093 0.561556 20.0293 0.320724L20.6533 0.320312Z" fill="white"/>
  <path d="M16.9962 1.7842V4.94954C16.9962 5.89663 16.4695 6.455 15.535 6.455C14.5937 6.455 14.0869 5.89746 14.0869 4.94954V1.7842C14.0869 0.829692 14.6005 0.27832 15.535 0.27832C16.4763 0.27832 16.9962 0.82928 16.9962 1.7842ZM15.9978 1.62854C15.9978 1.31436 15.8202 1.11588 15.5502 1.11588C15.4844 1.1166 15.4195 1.13092 15.3597 1.15788C15.3 1.18485 15.2468 1.22385 15.2037 1.27231C15.1606 1.32077 15.1285 1.37758 15.1097 1.43899C15.0908 1.5004 15.0855 1.565 15.0942 1.62854V5.10107C15.0942 5.41526 15.2786 5.61374 15.5418 5.61374C15.6075 5.61279 15.6722 5.5983 15.7318 5.57123C15.7913 5.54417 15.8443 5.50513 15.8872 5.4567C15.9301 5.40827 15.962 5.35154 15.9808 5.29024C15.9996 5.22895 16.0048 5.16448 15.9961 5.10107L15.9978 1.62854Z" fill="white"/>
</svg>